<?xml version="1.0" standalone="yes"?><svg version="1.1" xmlns = 'http://www.w3.org/2000/svg'><defs><font id='web' horiz-adv-x="1000">
<font-face font-family="web" descent="-250" cap-height="800" units-per-em="1100" bbox="0,-234,1171,852" x-height="600" ascent="850" />
<missing-glyph horiz-adv-x="600" d="" /><glyph horiz-adv-x="770" d="M 359 124 C 382 124 405 131 429 147 C 453 162 476 183 500 210 L 500 464 C 487 469 472 474 456 478 C 439 482 422 484 405 484 C 361 484 327 470 305 444 C 282 417 271 373 271 313 L 271 232 C 271 195 278 168 294 150 C 310 132 331 124 359 124 Z M 281 -10 C 222 -10 177 11 146 54 C 115 97 100 152 100 218 L 100 314 C 100 408 127 480 181 531 C 235 581 313 607 414 607 C 455 607 500 602 550 593 C 599 584 639 572 670 556 L 670 0 L 500 0 L 500 120 L 470 120 C 452 78 426 45 393 23 C 360 1 323 -10 281 -10 Z" unicode="" />
<glyph horiz-adv-x="700" d="M 172 365 L 415 800 L 529 800 L 429 365 L 172 365 Z" unicode="ʻ" />
<glyph horiz-adv-x="770" d="M 355 164 C 382 164 407 168 431 178 C 455 188 478 206 500 234 L 500 460 C 484 468 468 475 451 480 C 433 484 414 487 394 487 C 358 487 328 478 305 462 C 281 446 270 418 270 379 L 270 263 C 270 227 277 201 293 186 C 309 171 329 164 355 164 Z M 670 548 L 670 72 C 670 -15 640 -83 580 -133 C 520 -183 441 -208 341 -208 C 312 -208 279 -206 243 -203 C 206 -199 169 -190 131 -176 L 150 -53 C 184 -65 218 -72 252 -76 C 285 -80 315 -82 343 -82 C 392 -82 430 -68 458 -42 C 486 -16 500 21 500 70 L 500 144 L 470 144 C 452 108 427 80 395 62 C 363 43 328 34 288 34 C 230 34 185 54 151 94 C 117 134 100 190 100 262 L 100 381 C 100 452 126 508 178 549 C 230 589 301 610 393 610 C 451 610 504 604 551 593 C 597 581 637 566 670 548 Z" unicode="" />
<glyph horiz-adv-x="770" d="M 620 -210 C 549 -210 489 -207 439 -201 C 389 -195 349 -184 318 -169 C 286 -153 263 -133 249 -107 C 235 -81 228 -50 228 -12 L 228 177 C 228 193 225 206 219 218 C 213 229 203 238 189 245 C 175 252 157 257 135 261 C 112 265 84 267 50 268 L 50 356 C 84 356 112 358 135 362 C 157 365 175 370 189 377 C 203 384 213 393 219 404 C 225 415 228 429 228 445 L 228 606 C 228 645 235 678 250 704 C 264 730 287 752 319 768 C 350 784 390 795 440 801 C 490 807 550 810 620 810 L 620 685 C 578 685 542 684 514 681 C 486 678 463 673 446 665 C 428 657 416 646 409 632 C 401 618 398 601 398 580 L 398 430 C 398 410 394 392 387 378 C 379 364 367 352 351 343 C 334 334 312 327 284 322 C 256 317 223 314 183 314 L 183 309 C 223 306 257 302 285 296 C 312 290 334 282 351 272 C 367 262 379 251 387 237 C 394 223 398 206 398 188 L 398 23 C 398 1 401 -17 409 -32 C 416 -46 428 -58 446 -66 C 463 -74 486 -80 514 -83 C 542 -86 578 -87 620 -87 L 620 -210 L 620 -210 Z" unicode="" />
<glyph horiz-adv-x="770" d="M 385 696 C 351 696 323 701 302 711 C 280 721 270 740 270 766 L 270 779 C 270 805 280 824 302 835 C 323 846 351 852 385 852 C 419 852 446 846 468 835 C 489 824 500 805 500 779 L 500 766 C 500 740 489 721 468 711 C 446 701 419 696 385 696 Z M 100 0 L 100 125 L 300 125 L 300 475 L 100 475 L 100 600 L 470 600 L 470 125 L 670 125 L 670 0 L 100 0 Z" unicode="" />
<glyph horiz-adv-x="1000" d="M 129 279 L 129 428 L 871 428 L 871 279 L 129 279 Z" unicode="–" />
<glyph horiz-adv-x="1300" d="M 129 279 L 129 428 L 1171 428 L 1171 279 L 129 279 Z" unicode="—" />
<glyph horiz-adv-x="700" d="M 172 365 L 415 800 L 529 800 L 429 365 L 172 365 Z" unicode="‘" />
<glyph horiz-adv-x="700" d="M 171 365 L 271 800 L 528 800 L 285 365 L 171 365 Z" unicode="’" />
<glyph horiz-adv-x="1040" d="M 527 365 L 770 800 L 881 800 L 781 365 L 527 365 Z M 164 365 L 407 800 L 518 800 L 418 365 L 164 365 Z" unicode="“" />
<glyph horiz-adv-x="1040" d="M 522 365 L 622 800 L 876 800 L 633 365 L 522 365 Z M 159 365 L 259 800 L 513 800 L 270 365 L 159 365 Z" unicode="”" />
<glyph horiz-adv-x="600" d="" unicode=" " />
<glyph horiz-adv-x="770" d="M 307 300 L 277 800 L 487 800 L 457 300 L 307 300 Z M 386 -10 C 342 -10 309 -3 287 10 C 265 24 254 45 254 74 L 254 102 C 254 131 265 153 287 167 C 309 181 342 188 386 188 C 430 188 462 181 484 167 C 506 153 517 131 517 102 L 517 74 C 517 45 505 24 483 10 C 461 -3 428 -10 386 -10 Z" unicode="!" />
<glyph horiz-adv-x="1010" d="M 616 365 L 582 800 L 798 800 L 764 365 L 616 365 Z M 246 365 L 212 800 L 428 800 L 394 365 L 246 365 Z" unicode="&#x22;" />
<glyph horiz-adv-x="970" d="M 557 297 L 567 503 L 413 503 L 403 297 L 557 297 Z M 542 0 L 551 179 L 397 179 L 388 0 L 242 0 L 251 179 L 100 179 L 100 297 L 257 297 L 267 503 L 100 503 L 100 621 L 273 621 L 282 800 L 428 800 L 419 621 L 573 621 L 582 800 L 728 800 L 719 621 L 870 621 L 870 503 L 713 503 L 703 297 L 870 297 L 870 179 L 697 179 L 688 0 L 542 0 Z" unicode="#" />
<glyph horiz-adv-x="770" d="M 249 563 C 249 543 255 526 269 513 C 283 500 307 489 341 480 L 341 638 C 309 635 286 628 271 617 C 256 605 249 587 249 563 Z M 537 239 C 537 259 529 276 513 290 C 497 303 469 315 429 325 L 429 159 C 466 160 493 167 511 180 C 528 192 537 212 537 239 Z M 439 -50 L 331 -50 L 331 44 C 275 48 226 58 186 73 C 146 88 110 105 80 125 L 119 241 C 149 222 182 205 217 190 C 251 175 293 165 341 161 L 341 342 C 251 357 188 380 151 410 C 113 440 95 484 95 542 C 95 600 114 648 153 686 C 192 724 251 747 331 755 L 331 850 L 439 850 L 439 756 C 479 752 519 743 559 731 C 598 719 629 704 653 688 L 621 576 C 590 592 560 606 530 616 C 500 626 466 633 429 637 L 429 462 C 525 445 593 421 633 390 C 672 358 692 313 692 255 C 692 193 669 143 625 107 C 580 70 518 49 439 43 L 439 -50 Z" unicode="$" />
<glyph horiz-adv-x="1240" d="M 293 374 C 227 374 173 386 133 412 C 92 438 72 478 72 532 L 72 650 C 72 704 92 744 133 770 C 173 796 227 810 293 810 C 359 810 412 796 452 770 C 492 744 512 704 512 650 L 512 532 C 512 478 491 438 451 412 C 411 386 358 374 293 374 Z M 292 0 L 792 800 L 948 800 L 448 0 L 292 0 Z M 293 480 C 315 480 333 484 347 494 C 360 503 367 519 367 541 L 367 642 C 367 663 360 679 347 689 C 333 699 315 705 293 705 C 270 705 252 699 238 689 C 224 679 217 663 217 642 L 217 541 C 217 519 224 503 238 494 C 252 484 270 480 293 480 Z M 948 -12 C 882 -12 828 0 788 26 C 747 52 727 92 727 146 L 727 271 C 727 325 747 365 788 391 C 829 417 882 431 948 431 C 1014 431 1067 417 1107 391 C 1147 365 1167 325 1167 271 L 1167 146 C 1167 92 1146 52 1106 26 C 1066 0 1013 -12 948 -12 Z M 948 94 C 970 94 988 98 1002 108 C 1015 117 1022 133 1022 155 L 1022 263 C 1022 284 1015 300 1002 310 C 988 320 970 326 948 326 C 925 326 907 320 893 310 C 879 300 873 284 873 263 L 873 155 C 873 133 879 117 893 108 C 907 98 925 94 948 94 Z" unicode="%" />
<glyph horiz-adv-x="900" d="M 838 -17 C 796 -6 756 7 717 25 C 678 42 641 61 607 82 C 574 52 538 30 499 14 C 459 -2 414 -10 363 -10 C 281 -10 217 8 170 45 C 123 81 100 134 100 204 C 100 249 112 290 137 326 C 162 362 202 396 256 427 C 237 458 223 488 214 516 C 204 544 200 569 200 591 C 200 658 221 711 264 751 C 307 791 365 811 439 811 C 503 811 555 793 597 759 C 639 725 660 682 660 630 C 660 580 642 538 608 505 C 574 471 511 439 420 407 C 426 397 433 387 441 377 C 448 367 456 358 464 349 C 481 329 500 309 520 290 C 540 271 560 253 582 236 C 597 260 612 288 628 320 C 644 352 660 387 676 427 L 807 395 C 785 350 762 308 736 269 C 710 230 684 195 658 163 L 867 103 L 838 -17 Z M 356 590 C 356 572 358 555 362 537 C 366 519 372 501 379 483 C 427 503 462 524 483 546 C 503 567 514 592 514 621 C 514 645 507 664 494 678 C 481 692 462 699 438 699 C 409 699 388 689 375 669 C 362 649 356 623 356 590 Z M 395 101 C 415 101 435 104 454 112 C 473 119 492 131 510 147 C 482 167 456 189 431 212 C 406 235 383 258 363 281 C 354 289 346 298 339 308 C 331 318 324 327 318 337 C 303 319 291 299 283 277 C 274 255 270 233 270 211 C 270 173 280 145 302 127 C 323 109 354 101 395 101 Z" unicode="&#x26;" />
<glyph horiz-adv-x="700" d="M 276 365 L 242 800 L 458 800 L 424 365 L 276 365 Z" unicode="'" />
<glyph horiz-adv-x="770" d="M 606 -210 C 460 -185 355 -125 293 -30 C 231 64 200 174 200 300 C 200 422 231 531 293 628 C 355 724 460 785 606 810 L 623 696 C 526 671 460 624 424 556 C 388 488 370 402 370 300 C 370 197 388 112 424 46 C 460 -19 526 -65 623 -90 L 606 -210 Z" unicode="(" />
<glyph horiz-adv-x="770" d="M 164 -210 L 147 -90 C 243 -65 310 -19 346 49 C 382 117 400 200 400 300 C 400 395 382 479 346 551 C 310 623 243 671 147 696 L 164 810 C 310 785 414 724 476 628 C 538 531 570 422 570 300 C 570 174 538 64 476 -30 C 414 -125 310 -185 164 -210 Z" unicode=")" />
<glyph horiz-adv-x="900" d="M 672 266 L 482 442 L 524 200 L 374 200 L 417 441 L 228 266 L 153 396 L 395 501 L 153 606 L 228 736 L 417 560 L 374 800 L 524 800 L 482 559 L 672 736 L 747 606 L 504 501 L 747 396 L 672 266 Z" unicode="*" />
<glyph horiz-adv-x="900" d="M 379 0 L 379 279 L 100 279 L 100 421 L 379 421 L 379 700 L 521 700 L 521 421 L 800 421 L 800 279 L 521 279 L 521 0 L 379 0 Z" unicode="+" />
<glyph horiz-adv-x="700" d="M 181 -165 L 261 270 L 518 270 L 295 -165 L 181 -165 Z" unicode="," />
<glyph horiz-adv-x="700" d="M 351 -10 C 309 -10 275 0 250 17 C 224 35 212 62 212 96 L 212 165 C 212 199 224 226 250 245 C 275 263 309 273 351 273 C 392 273 425 263 451 245 C 476 226 489 199 489 165 L 489 96 C 489 62 476 35 450 17 C 424 0 391 -10 351 -10 Z" unicode="." />
<glyph horiz-adv-x="700" d="M 79 -200 L 479 800 L 621 800 L 221 -200 L 79 -200 Z" unicode="/" />
<glyph horiz-adv-x="870" d="M 435 -10 C 324 -10 240 19 183 79 C 125 139 97 223 97 333 L 97 463 C 97 573 125 659 183 719 C 241 779 325 810 436 810 C 546 810 630 779 687 719 C 744 659 773 573 773 463 L 773 333 C 773 223 744 139 687 79 C 629 19 545 -10 435 -10 Z M 435 115 C 502 115 547 135 569 175 C 591 215 603 274 603 350 L 603 446 C 603 521 591 580 569 622 C 547 664 502 685 435 685 C 367 685 322 664 300 622 C 278 580 267 521 267 446 L 267 350 C 267 274 278 215 300 175 C 322 135 367 115 435 115 Z M 435 315 C 413 315 396 319 383 327 C 369 335 363 349 363 371 L 363 428 C 363 448 369 463 383 471 C 396 479 413 484 435 484 C 456 484 473 479 486 471 C 499 463 506 448 506 428 L 506 371 C 506 349 499 335 486 327 C 472 319 455 315 435 315 Z" unicode="0" />
<glyph horiz-adv-x="870" d="M 180 0 L 180 132 L 400 132 L 400 626 L 374 626 C 362 582 337 548 299 522 C 261 496 218 481 170 479 L 160 612 C 212 615 262 633 310 665 C 357 697 388 742 403 800 L 570 800 L 570 132 L 770 132 L 770 0 L 180 0 Z" unicode="1" />
<glyph horiz-adv-x="870" d="M 100 0 L 100 167 C 100 233 115 286 146 327 C 176 367 224 394 289 408 L 485 448 C 523 455 550 467 566 483 C 582 499 590 524 590 557 L 590 580 C 590 618 577 645 552 661 C 527 677 488 685 435 685 C 383 685 345 675 321 657 C 297 638 284 602 280 549 L 110 559 C 114 642 142 705 192 747 C 242 789 322 810 434 810 C 546 810 629 790 681 750 C 733 710 760 654 760 582 L 760 535 C 760 475 744 428 712 395 C 680 361 635 339 575 327 L 378 287 C 340 279 312 266 295 249 C 278 231 270 205 270 169 L 270 132 L 770 132 L 770 0 L 100 0 Z" unicode="2" />
<glyph horiz-adv-x="870" d="M 434 -10 C 317 -10 232 9 178 47 C 124 85 94 146 90 228 L 260 238 C 265 186 280 154 304 140 C 328 126 371 120 433 120 C 492 120 535 128 561 144 C 587 160 600 186 600 222 L 600 249 C 600 286 587 313 561 330 C 535 346 493 355 435 355 L 311 355 L 311 485 L 435 485 C 486 485 523 491 546 503 C 568 515 580 534 580 562 L 580 594 C 580 624 567 646 543 660 C 519 673 479 680 425 680 C 379 680 345 672 322 658 C 298 643 284 617 280 581 L 110 591 C 114 668 141 724 191 758 C 241 792 319 810 425 810 C 533 810 614 793 668 761 C 722 729 750 678 750 609 L 750 587 C 750 542 735 507 707 482 C 679 457 643 442 600 438 L 600 409 C 647 405 687 387 720 357 C 753 327 770 287 770 238 L 770 218 C 770 140 742 83 688 46 C 633 8 548 -10 434 -10 Z" unicode="3" />
<glyph horiz-adv-x="870" d="M 248 325 L 500 325 L 500 648 L 248 325 Z M 820 200 L 670 200 L 670 0 L 500 0 L 500 200 L 90 200 L 90 325 L 455 800 L 670 800 L 670 325 L 820 325 L 820 200 Z" unicode="4" />
<glyph horiz-adv-x="870" d="M 434 -10 C 314 -10 227 8 175 44 C 123 80 94 146 90 242 L 260 252 C 265 195 280 158 305 141 C 329 123 373 115 435 115 C 499 115 543 124 566 144 C 588 164 600 195 600 237 L 600 271 C 600 313 587 342 562 360 C 537 377 492 386 427 386 L 120 386 L 120 800 L 737 800 L 737 675 L 290 675 L 290 519 L 477 519 C 572 519 645 501 695 465 C 745 429 770 373 770 298 L 770 213 C 770 149 743 95 689 53 C 635 11 550 -10 434 -10 Z" unicode="5" />
<glyph horiz-adv-x="870" d="M 435 -10 C 319 -10 235 15 181 66 C 127 116 100 186 100 276 L 100 518 C 100 610 126 681 178 733 C 230 784 317 810 437 810 C 547 810 625 792 671 756 C 717 720 747 670 761 605 L 582 582 C 573 624 557 651 535 665 C 512 678 475 685 425 685 C 367 685 326 672 304 648 C 281 624 270 580 270 517 L 270 430 L 283 430 C 301 452 327 469 361 481 C 395 493 436 500 484 500 C 582 500 654 479 700 439 C 746 399 770 340 770 262 L 770 240 C 770 169 743 110 689 62 C 635 14 551 -10 435 -10 Z M 434 115 C 494 115 537 126 561 148 C 585 170 598 201 598 241 L 598 254 C 598 296 585 328 561 352 C 537 376 494 388 434 388 C 373 388 330 376 306 352 C 282 328 270 296 270 254 L 270 241 C 270 198 282 166 306 146 C 330 125 373 115 434 115 Z" unicode="6" />
<glyph horiz-adv-x="870" d="M 300 0 C 334 161 372 282 414 363 C 455 443 517 544 600 665 L 100 665 L 100 800 L 770 800 L 770 665 C 688 530 624 419 580 332 C 536 245 502 134 480 0 L 300 0 Z" unicode="7" />
<glyph horiz-adv-x="870" d="M 435 -10 C 311 -10 224 9 174 48 C 124 87 100 142 100 214 L 100 236 C 100 286 114 325 143 355 C 172 385 212 402 264 407 L 264 436 C 222 440 187 454 160 479 C 133 503 120 537 120 579 L 120 611 C 120 679 147 730 201 762 C 255 794 333 810 435 810 C 537 810 615 794 669 763 C 723 731 750 681 750 611 L 750 579 C 750 537 736 503 709 479 C 682 454 648 440 606 436 L 606 407 C 657 402 697 384 726 354 C 755 324 770 284 770 236 L 770 214 C 770 141 745 85 695 47 C 645 9 559 -10 435 -10 Z M 435 483 C 483 483 520 489 544 502 C 568 515 580 538 580 571 L 580 594 C 580 626 568 648 544 661 C 520 673 483 680 435 680 C 386 680 350 673 326 661 C 302 648 290 626 290 594 L 290 571 C 290 538 302 515 326 502 C 350 489 386 483 435 483 Z M 435 120 C 501 120 545 129 567 148 C 589 167 600 195 600 231 L 600 245 C 600 281 589 309 567 329 C 545 348 501 358 435 358 C 369 358 325 348 303 329 C 281 309 270 281 270 245 L 270 231 C 270 195 281 167 303 148 C 325 129 369 120 435 120 Z" unicode="8" />
<glyph horiz-adv-x="870" d="M 436 412 C 496 412 539 423 563 447 C 587 471 600 504 600 546 L 600 559 C 600 601 587 633 563 654 C 539 674 496 685 436 685 C 375 685 332 673 308 651 C 284 629 272 598 272 559 L 272 546 C 272 504 284 471 308 447 C 332 423 375 412 436 412 Z M 433 -10 C 323 -10 244 7 198 43 C 152 79 122 129 109 195 L 288 218 C 297 176 313 148 335 135 C 357 121 394 115 446 115 C 504 115 544 127 566 152 C 588 176 600 220 600 283 L 600 370 L 580 370 C 561 348 535 331 503 319 C 470 306 428 300 376 300 C 282 300 213 319 168 359 C 122 398 100 458 100 538 L 100 560 C 100 631 126 690 180 738 C 234 786 319 810 435 810 C 550 810 635 784 689 734 C 743 683 770 613 770 524 L 770 282 C 770 190 743 119 691 67 C 639 15 553 -10 433 -10 Z" unicode="9" />
<glyph horiz-adv-x="700" d="M 351 387 C 313 387 282 395 258 411 C 234 427 222 451 222 482 L 222 537 C 222 568 234 592 258 609 C 282 625 313 634 351 634 C 389 634 419 625 443 609 C 466 592 478 568 478 537 L 478 482 C 478 451 466 427 442 411 C 418 395 387 387 351 387 Z M 351 -6 C 313 -6 282 2 258 18 C 234 34 222 58 222 89 L 222 144 C 222 175 234 199 258 216 C 282 232 313 241 351 241 C 389 241 419 232 443 216 C 466 199 478 175 478 144 L 478 89 C 478 58 466 34 442 18 C 418 2 387 -6 351 -6 Z" unicode=":" />
<glyph horiz-adv-x="700" d="M 351 387 C 313 387 282 395 258 411 C 234 427 222 451 222 482 L 222 537 C 222 568 234 592 258 609 C 282 625 313 634 351 634 C 389 634 419 625 443 609 C 466 592 478 568 478 537 L 478 482 C 478 451 466 427 442 411 C 418 395 387 387 351 387 Z M 194 -150 L 268 255 L 506 255 L 299 -150 L 194 -150 Z" unicode=";" />
<glyph horiz-adv-x="900" d="M 750 0 L 150 265 L 150 435 L 750 700 L 750 563 L 269 350 L 750 137 L 750 0 Z" unicode="&#x3C;" />
<glyph horiz-adv-x="900" d="M 100 433 L 100 575 L 800 575 L 800 433 L 100 433 Z M 100 125 L 100 267 L 800 267 L 800 125 L 100 125 Z" unicode="=" />
<glyph horiz-adv-x="900" d="M 150 0 L 150 130 L 647 350 L 150 570 L 150 700 L 750 435 L 750 265 L 150 0 Z" unicode="&#x3E;" />
<glyph horiz-adv-x="1000" d="M 420 278 L 400 394 C 516 412 593 433 632 457 C 670 480 690 512 690 552 L 690 575 C 690 609 679 636 659 656 C 638 675 597 685 535 685 C 471 685 428 675 408 655 C 387 635 374 599 370 549 L 200 559 C 204 647 233 710 286 750 C 338 790 421 810 534 810 C 643 810 725 788 779 744 C 833 700 860 647 860 584 L 860 548 C 860 468 825 409 755 370 C 685 331 574 300 420 278 Z M 487 -10 C 443 -10 410 -3 388 10 C 366 24 356 45 356 74 L 356 102 C 356 131 366 153 388 167 C 410 181 443 188 487 188 C 531 188 564 181 586 167 C 608 153 619 131 619 102 L 619 74 C 619 45 607 24 585 10 C 562 -3 529 -10 487 -10 Z" unicode="?" />
<glyph horiz-adv-x="1070" d="M 613 -110 C 465 -110 354 -78 281 -15 C 208 48 172 132 172 237 L 172 493 C 172 588 203 665 266 723 C 328 781 423 810 551 810 C 662 810 748 782 808 728 C 868 674 898 599 898 503 L 898 287 C 894 229 871 186 830 158 C 788 130 729 117 653 117 C 571 117 512 132 474 164 C 436 196 417 240 417 296 L 417 390 C 417 445 434 489 468 523 C 502 556 547 573 603 573 C 641 573 672 566 696 553 C 720 539 737 523 748 504 L 778 504 C 776 572 759 624 726 658 C 693 692 634 709 550 709 C 462 709 399 690 361 652 C 323 614 304 561 304 493 L 304 244 C 304 165 328 104 376 60 C 424 16 503 -5 613 -5 C 652 -5 688 -2 722 3 C 755 9 786 16 815 25 L 815 -80 C 787 -87 755 -94 719 -100 C 683 -106 647 -110 613 -110 Z M 657 218 C 681 218 701 223 715 233 C 729 243 736 265 736 298 L 736 382 C 736 414 728 437 714 451 C 699 465 680 472 657 472 C 632 472 612 465 598 451 C 584 437 577 413 577 380 L 577 306 C 577 274 583 252 597 238 C 610 224 630 218 657 218 Z" unicode="@" />
<glyph horiz-adv-x="800" d="M 497 327 L 394 677 L 290 327 L 497 327 Z M 593 0 L 536 195 L 251 195 L 193 0 L 33 0 L 293 800 L 509 800 L 767 0 L 593 0 Z" unicode="A" />
<glyph horiz-adv-x="870" d="M 100 0 L 100 800 L 491 800 C 579 800 644 784 686 754 C 728 723 749 676 749 612 L 749 575 C 749 534 739 503 720 481 C 701 459 672 444 633 438 L 633 409 C 677 404 711 388 736 361 C 761 334 774 300 774 259 L 774 209 C 774 137 751 85 705 51 C 659 17 588 0 491 0 L 100 0 Z M 270 474 L 473 474 C 512 474 540 480 556 492 C 572 504 581 525 581 554 L 581 596 C 581 624 572 645 556 657 C 540 669 512 675 473 675 L 270 675 L 270 474 Z M 270 125 L 476 125 C 522 125 555 132 575 146 C 594 160 604 185 604 219 L 604 265 C 604 298 594 322 575 336 C 555 350 522 358 476 358 L 270 358 L 270 125 Z" unicode="B" />
<glyph horiz-adv-x="870" d="M 452 -10 C 331 -10 242 14 185 63 C 128 111 100 180 100 270 L 100 526 C 100 616 128 685 186 735 C 243 785 332 810 453 810 C 567 810 652 787 707 742 C 762 697 792 625 797 525 L 627 515 C 622 577 607 619 581 643 C 555 666 512 678 452 678 C 384 678 337 665 310 641 C 283 616 270 573 270 511 L 270 284 C 270 224 283 182 310 158 C 337 134 384 122 452 122 C 513 122 557 133 583 157 C 609 181 623 222 627 281 L 797 271 C 794 173 765 102 710 57 C 654 12 568 -10 452 -10 Z" unicode="C" />
<glyph horiz-adv-x="870" d="M 100 0 L 100 800 L 427 800 C 534 800 618 773 679 720 C 739 667 770 597 770 509 L 770 287 C 770 199 739 130 678 78 C 617 26 533 0 426 0 L 100 0 Z M 270 132 L 412 132 C 484 132 533 146 560 174 C 586 202 600 245 600 301 L 600 495 C 600 551 586 593 560 623 C 533 653 484 668 412 668 L 270 668 L 270 132 Z" unicode="D" />
<glyph horiz-adv-x="770" d="M 100 0 L 100 800 L 676 800 L 676 668 L 270 668 L 270 494 L 626 494 L 626 362 L 270 362 L 270 132 L 676 132 L 676 0 L 100 0 Z" unicode="E" />
<glyph horiz-adv-x="770" d="M 100 0 L 100 800 L 690 800 L 690 668 L 270 668 L 270 435 L 620 435 L 620 303 L 270 303 L 270 0 L 100 0 Z" unicode="F" />
<glyph horiz-adv-x="870" d="M 442 -10 C 328 -10 243 14 186 64 C 128 114 100 182 100 270 L 100 526 C 100 614 128 683 185 734 C 241 784 326 810 439 810 C 549 810 630 790 683 751 C 736 712 765 648 770 559 L 600 549 C 595 596 582 629 560 649 C 538 668 498 678 440 678 C 374 678 329 664 305 638 C 281 612 270 570 270 512 L 270 284 C 270 227 283 186 309 160 C 335 134 383 122 455 122 C 515 122 556 134 576 160 C 596 186 606 228 606 288 L 435 288 L 435 420 L 776 420 L 776 273 C 776 185 748 116 693 66 C 637 15 554 -10 442 -10 Z" unicode="G" />
<glyph horiz-adv-x="870" d="M 100 0 L 100 800 L 270 800 L 270 508 L 600 508 L 600 800 L 770 800 L 770 0 L 600 0 L 600 376 L 270 376 L 270 0 L 100 0 Z" unicode="H" />
<glyph horiz-adv-x="770" d="M 100 0 L 100 132 L 300 132 L 300 668 L 100 668 L 100 800 L 670 800 L 670 668 L 470 668 L 470 132 L 670 132 L 670 0 L 100 0 Z" unicode="I" />
<glyph horiz-adv-x="770" d="M 379 -10 C 265 -10 184 11 137 55 C 90 98 64 172 60 278 L 230 289 C 234 221 246 176 264 154 C 282 132 318 122 370 122 C 423 122 458 133 475 155 C 491 177 500 214 500 267 L 500 668 L 265 668 L 265 800 L 670 800 L 670 260 C 670 176 648 110 604 62 C 560 14 485 -10 379 -10 Z" unicode="J" />
<glyph horiz-adv-x="770" d="M 270 349 L 270 0 L 100 0 L 100 800 L 270 800 L 270 481 L 308 481 L 559 800 L 747 800 L 451 431 L 744 0 L 547 0 L 311 349 L 270 349 Z" unicode="K" />
<glyph horiz-adv-x="670" d="M 100 0 L 100 800 L 270 800 L 270 132 L 623 132 L 623 0 L 100 0 Z" unicode="L" />
<glyph horiz-adv-x="970" d="M 402 200 L 248 618 L 248 0 L 100 0 L 100 800 L 324 800 L 488 334 L 652 800 L 870 800 L 870 0 L 723 0 L 723 620 L 568 200 L 402 200 Z" unicode="M" />
<glyph horiz-adv-x="870" d="M 536 0 L 248 623 L 248 0 L 100 0 L 100 800 L 335 800 L 623 175 L 623 800 L 770 800 L 770 0 L 536 0 Z" unicode="N" />
<glyph horiz-adv-x="870" d="M 435 -10 C 325 -10 241 14 185 63 C 128 111 100 180 100 270 L 100 526 C 100 616 128 686 185 736 C 242 785 326 810 436 810 C 546 810 629 785 685 736 C 741 686 770 616 770 526 L 770 270 C 770 180 741 111 685 63 C 628 14 545 -10 435 -10 Z M 435 122 C 495 122 537 134 562 158 C 587 182 600 224 600 284 L 600 512 C 600 572 587 615 562 640 C 537 665 495 678 435 678 C 375 678 332 665 307 640 C 282 615 270 572 270 512 L 270 284 C 270 224 282 182 307 158 C 332 134 375 122 435 122 Z" unicode="O" />
<glyph horiz-adv-x="770" d="M 100 0 L 100 800 L 424 800 C 511 800 579 780 627 741 C 675 701 700 646 700 575 L 700 469 C 700 399 675 346 627 308 C 579 270 511 252 424 252 L 270 252 L 270 0 L 100 0 Z M 270 383 L 401 383 C 447 383 480 391 500 407 C 520 423 530 450 530 488 L 530 560 C 530 598 520 626 500 643 C 480 659 447 668 401 668 L 270 668 L 270 383 Z" unicode="P" />
<glyph horiz-adv-x="870" d="M 707 -205 C 585 -224 496 -216 442 -182 C 387 -147 360 -81 361 17 C 275 26 210 54 166 101 C 122 148 100 211 100 291 L 100 526 C 100 616 128 686 185 736 C 242 785 326 810 436 810 C 546 810 629 785 685 736 C 741 686 770 616 770 526 L 770 291 C 770 211 746 147 700 99 C 654 51 586 23 497 15 C 499 -27 515 -54 545 -66 C 575 -78 623 -78 689 -66 L 707 -205 Z M 435 136 C 498 136 541 148 565 172 C 588 196 600 240 600 305 L 600 512 C 600 576 588 619 565 643 C 541 666 498 678 435 678 C 371 678 328 666 305 643 C 281 619 270 576 270 512 L 270 305 C 270 240 281 196 305 172 C 328 148 371 136 435 136 Z" unicode="Q" />
<glyph horiz-adv-x="870" d="M 270 420 L 464 420 C 509 420 541 427 559 441 C 577 455 586 480 586 514 L 586 576 C 586 610 577 633 559 647 C 541 661 509 668 464 668 L 270 668 L 270 420 Z M 270 0 L 100 0 L 100 800 L 500 800 C 582 800 645 781 689 743 C 733 705 756 651 756 582 L 756 513 C 756 455 741 407 711 371 C 681 334 637 310 581 298 L 779 0 L 585 0 L 393 289 L 270 289 L 270 0 Z" unicode="R" />
<glyph horiz-adv-x="870" d="M 432 -9 C 366 -9 303 1 244 21 C 184 41 133 73 90 116 L 149 231 C 191 195 237 168 286 150 C 335 132 391 123 454 123 C 504 123 542 132 568 150 C 594 168 607 194 607 228 C 607 258 591 280 561 294 C 531 308 467 323 369 340 C 275 354 208 378 170 411 C 131 444 112 494 112 560 C 112 631 138 690 192 737 C 245 784 323 808 426 808 C 488 808 547 797 603 777 C 659 757 704 729 737 693 L 685 583 C 645 613 603 635 559 651 C 515 667 470 675 423 675 C 379 675 344 667 319 651 C 293 635 281 611 281 579 C 281 548 296 526 327 513 C 358 499 424 484 524 467 C 616 451 682 426 720 392 C 758 358 777 308 777 242 C 777 162 746 101 685 57 C 624 13 540 -9 432 -9 Z" unicode="S" />
<glyph horiz-adv-x="770" d="M 300 0 L 300 668 L 50 668 L 50 800 L 720 800 L 720 668 L 470 668 L 470 0 L 300 0 Z" unicode="T" />
<glyph horiz-adv-x="870" d="M 435 -10 C 316 -10 230 14 178 63 C 126 112 100 188 100 291 L 100 800 L 270 800 L 270 305 C 270 241 281 195 304 169 C 326 142 370 129 435 129 C 499 129 543 142 566 169 C 588 195 600 241 600 305 L 600 800 L 770 800 L 770 291 C 770 188 743 112 691 63 C 639 14 553 -10 435 -10 Z" unicode="U" />
<glyph horiz-adv-x="800" d="M 508 0 L 291 0 L 33 800 L 208 800 L 405 133 L 604 800 L 767 800 L 508 0 Z" unicode="V" />
<glyph horiz-adv-x="1040" d="M 644 0 L 522 498 L 396 0 L 210 0 L 52 800 L 214 800 L 328 185 L 440 673 L 609 673 L 730 184 L 842 800 L 989 800 L 830 0 L 644 0 Z" unicode="W" />
<glyph horiz-adv-x="870" d="M 611 0 L 433 277 L 258 0 L 73 0 L 346 412 L 98 800 L 289 800 L 455 537 L 615 800 L 798 800 L 542 400 L 795 0 L 611 0 Z" unicode="X" />
<glyph horiz-adv-x="770" d="M 470 0 L 300 0 L 300 300 L 11 800 L 191 800 L 390 438 L 587 800 L 759 800 L 470 300 L 470 0 Z" unicode="Y" />
<glyph horiz-adv-x="870" d="M 763 0 L 107 0 L 107 132 L 556 668 L 107 668 L 107 800 L 763 800 L 763 668 L 312 132 L 763 132 L 763 0 Z" unicode="Z" />
<glyph horiz-adv-x="770" d="M 200 -200 L 200 800 L 620 800 L 620 675 L 370 675 L 370 -79 L 620 -79 L 620 -200 L 200 -200 Z" unicode="[" />
<glyph horiz-adv-x="700" d="M 479 -199 L 79 801 L 221 800 L 621 -200 L 479 -199 Z" unicode="\" />
<glyph horiz-adv-x="770" d="M 150 -200 L 150 -79 L 400 -79 L 400 675 L 150 675 L 150 800 L 570 800 L 570 -200 L 150 -200 Z" unicode="]" />
<glyph horiz-adv-x="970" d="M 705 200 L 485 640 L 265 200 L 100 200 L 400 800 L 570 800 L 870 200 L 705 200 Z" unicode="^" />
<glyph horiz-adv-x="900" d="M 100 -200 L 100 -51 L 800 -51 L 800 -200 L 100 -200 Z" unicode="_" />
<glyph horiz-adv-x="700" d="M 394 365 L 151 800 L 409 800 L 508 365 L 394 365 Z" unicode="`" />
<glyph horiz-adv-x="870" d="M 360 100 C 386 100 412 103 438 110 C 463 117 486 129 507 145 L 507 242 L 344 242 C 321 242 303 237 289 227 C 275 217 269 198 269 172 C 269 148 276 130 291 118 C 306 106 329 100 360 100 Z M 323 -10 C 259 -10 207 5 167 35 C 127 65 107 108 107 164 C 107 219 125 261 163 291 C 201 320 252 335 318 335 L 507 335 L 507 401 C 507 432 497 455 477 471 C 457 486 429 494 391 494 C 353 494 325 487 308 475 C 291 462 277 437 267 400 L 121 425 C 135 490 165 537 212 566 C 258 595 322 610 402 610 C 487 610 554 594 603 562 C 652 530 677 480 677 412 L 677 195 C 677 161 686 140 704 130 C 722 120 753 118 797 124 L 797 3 C 737 -9 689 -9 651 4 C 613 17 589 47 579 93 L 552 93 C 534 62 504 37 462 18 C 420 0 374 -10 323 -10 Z" unicode="a" />
<glyph horiz-adv-x="770" d="M 378 -7 C 335 -7 287 -2 233 7 C 179 17 134 32 100 53 L 100 800 L 270 800 L 270 493 L 300 493 C 316 529 340 558 373 579 C 405 599 443 610 486 610 C 542 610 586 590 620 551 C 653 511 670 457 670 388 L 670 219 C 670 143 643 86 590 49 C 537 11 466 -7 378 -7 Z M 385 117 C 419 117 446 124 468 139 C 489 154 500 181 500 220 L 500 374 C 500 410 491 437 475 453 C 458 469 436 477 408 477 C 383 477 359 471 337 460 C 315 449 292 432 270 410 L 270 145 C 284 136 301 129 320 124 C 338 119 360 117 385 117 Z" unicode="b" />
<glyph horiz-adv-x="770" d="M 392 -10 C 294 -10 220 10 172 50 C 124 90 100 147 100 221 L 100 376 C 100 454 125 512 177 551 C 229 590 300 610 391 610 C 482 610 551 591 598 553 C 644 515 672 460 681 390 L 517 377 C 513 419 502 447 484 462 C 466 476 436 484 394 484 C 349 484 317 475 298 457 C 279 439 270 411 270 374 L 270 228 C 270 188 279 159 298 141 C 317 123 350 115 396 115 C 440 115 471 121 488 133 C 504 145 514 169 517 203 L 681 190 C 676 124 652 75 608 41 C 564 7 492 -10 392 -10 Z" unicode="c" />
<glyph horiz-adv-x="770" d="M 362 124 C 386 124 410 129 432 140 C 454 150 477 167 500 190 L 500 453 C 481 463 462 471 442 476 C 422 481 403 484 385 484 C 347 484 319 475 299 457 C 279 439 270 414 270 380 L 270 226 C 270 189 278 163 295 147 C 311 131 334 124 362 124 Z M 470 107 C 456 75 433 47 402 24 C 371 1 332 -10 284 -10 C 225 -10 180 10 148 52 C 116 94 100 147 100 212 L 100 381 C 100 451 122 507 168 547 C 214 587 277 607 358 607 C 384 607 410 605 434 601 C 458 597 480 591 500 583 L 500 800 L 670 800 L 670 0 L 500 0 L 500 107 L 470 107 Z" unicode="d" />
<glyph horiz-adv-x="770" d="M 681 139 C 657 83 623 44 579 22 C 535 0 472 -10 388 -10 C 298 -10 227 10 176 52 C 125 94 100 152 100 228 L 100 375 C 100 449 125 507 177 548 C 228 589 298 610 386 610 C 473 610 542 589 593 548 C 644 506 670 448 670 372 L 670 266 L 270 266 L 270 228 C 270 188 280 157 300 135 C 320 113 353 103 399 103 C 441 103 472 109 492 121 C 512 133 527 152 537 178 L 681 139 Z M 270 374 L 270 359 L 500 359 L 500 371 C 500 417 491 451 473 471 C 455 491 425 501 385 501 C 344 501 315 491 297 471 C 279 451 270 419 270 374 Z" unicode="e" />
<glyph horiz-adv-x="670" d="M 200 0 L 200 475 L 80 475 L 80 600 L 200 600 L 200 634 C 200 696 221 744 263 778 C 305 812 363 830 435 830 C 457 830 482 827 508 823 C 534 819 557 813 579 806 L 559 693 C 541 699 523 703 507 707 C 490 710 474 712 459 712 C 431 712 410 705 394 691 C 378 677 370 654 370 622 L 370 600 L 570 600 L 570 475 L 370 475 L 370 0 L 200 0 Z" unicode="f" />
<glyph horiz-adv-x="870" d="M 770 -33 C 770 -87 749 -130 708 -162 C 666 -194 610 -210 539 -210 L 341 -210 C 262 -210 202 -196 161 -170 C 120 -144 100 -110 100 -68 C 100 -34 110 -8 130 12 C 150 32 176 43 207 47 L 207 67 C 183 73 162 84 146 100 C 129 115 121 139 121 171 C 121 205 133 234 159 257 C 184 280 218 294 260 299 L 260 318 C 224 327 197 342 179 364 C 161 386 152 411 152 440 L 152 449 C 152 497 174 534 219 560 C 263 586 329 600 416 600 L 763 600 L 763 496 L 601 516 L 601 496 C 625 489 645 476 661 456 C 677 436 685 414 685 391 L 685 381 C 685 333 663 296 619 270 C 575 244 508 231 418 231 L 313 231 C 292 231 276 227 264 219 C 252 211 247 198 247 180 C 247 162 253 149 266 141 C 279 133 297 129 320 129 L 546 129 C 615 129 670 115 710 89 C 750 63 770 22 770 -33 Z M 419 317 C 455 317 481 323 498 337 C 514 351 523 370 523 395 L 523 425 C 523 448 514 466 497 480 C 480 493 454 500 419 500 C 383 500 356 493 340 480 C 323 466 315 448 315 425 L 315 395 C 315 370 323 351 339 337 C 355 323 382 317 419 317 Z M 342 -109 L 535 -109 C 563 -109 586 -105 604 -97 C 622 -89 631 -74 631 -51 C 631 -27 622 -12 604 -4 C 586 3 564 7 538 7 L 262 7 L 262 -46 C 262 -66 268 -82 282 -93 C 295 -103 315 -109 342 -109 Z" unicode="g" />
<glyph horiz-adv-x="770" d="M 100 0 L 100 800 L 270 800 L 270 493 L 300 493 C 316 530 340 559 372 579 C 404 599 441 610 483 610 C 539 610 585 591 619 555 C 653 518 670 467 670 401 L 670 0 L 500 0 L 500 377 C 500 409 492 434 477 451 C 461 468 441 477 416 477 C 389 477 363 468 339 452 C 314 435 291 413 270 385 L 270 0 L 100 0 Z" unicode="h" />
<glyph horiz-adv-x="500" d="M 165 0 L 165 600 L 335 600 L 335 0 L 165 0 Z M 250 696 C 216 696 188 701 167 711 C 145 721 135 740 135 766 L 135 779 C 135 805 145 824 167 835 C 188 846 216 852 250 852 C 284 852 311 846 333 835 C 354 824 365 805 365 779 L 365 766 C 365 740 354 721 333 711 C 311 701 284 696 250 696 Z" unicode="i" />
<glyph horiz-adv-x="570" d="M 176 -209 C 153 -209 129 -207 105 -203 C 81 -199 57 -193 35 -187 L 55 -71 C 74 -77 92 -82 109 -86 C 126 -89 142 -91 157 -91 C 185 -91 208 -83 225 -67 C 241 -51 250 -25 250 11 L 250 475 L 72 475 L 72 600 L 420 600 L 420 -3 C 420 -75 395 -127 346 -160 C 297 -192 240 -209 176 -209 Z M 335 696 C 301 696 273 701 252 711 C 230 721 220 740 220 766 L 220 779 C 220 805 230 824 252 835 C 273 846 301 852 335 852 C 369 852 396 846 418 835 C 439 824 450 805 450 779 L 450 766 C 450 740 439 721 418 711 C 396 701 369 696 335 696 Z" unicode="j" />
<glyph horiz-adv-x="670" d="M 270 253 L 270 0 L 100 0 L 100 800 L 270 800 L 270 370 L 311 370 L 469 600 L 649 600 L 451 328 L 646 0 L 463 0 L 311 253 L 270 253 Z" unicode="k" />
<glyph horiz-adv-x="570" d="M 384 -9 C 309 -9 251 14 211 60 C 170 106 150 162 150 228 L 150 800 L 320 800 L 320 229 C 320 196 328 170 345 151 C 361 132 383 123 410 123 C 422 123 436 124 451 128 C 466 132 481 137 495 144 L 522 22 C 502 13 481 6 457 0 C 433 -6 409 -9 384 -9 Z" unicode="l" />
<glyph horiz-adv-x="1070" d="M 270 402 L 270 0 L 100 0 L 100 600 L 270 600 L 270 493 L 300 493 C 314 529 336 557 366 578 C 396 599 430 610 468 610 C 504 610 534 599 558 579 C 582 559 600 530 610 493 L 649 493 C 663 529 684 557 714 578 C 744 599 777 610 815 610 C 863 610 900 592 928 557 C 956 522 970 474 970 412 L 970 0 L 800 0 L 800 397 C 800 423 794 443 783 457 C 772 470 757 477 739 477 C 718 477 697 470 676 457 C 655 443 636 425 620 402 L 620 0 L 450 0 L 450 397 C 450 423 444 443 433 457 C 422 470 407 477 389 477 C 368 477 347 470 326 457 C 305 443 286 425 270 402 Z" unicode="m" />
<glyph horiz-adv-x="770" d="M 100 0 L 100 600 L 270 600 L 270 493 L 300 493 C 315 529 339 557 372 578 C 404 599 441 610 483 610 C 541 610 586 591 620 554 C 653 517 670 466 670 401 L 670 0 L 500 0 L 500 377 C 500 409 492 434 477 451 C 461 468 441 477 416 477 C 389 477 363 468 339 452 C 314 435 291 413 270 385 L 270 0 L 100 0 Z" unicode="n" />
<glyph horiz-adv-x="770" d="M 385 -10 C 303 -10 235 9 181 47 C 127 85 100 143 100 221 L 100 376 C 100 454 127 512 182 551 C 236 590 304 610 386 610 C 467 610 535 590 589 551 C 643 512 670 454 670 376 L 670 221 C 670 143 642 85 588 47 C 534 9 466 -10 385 -10 Z M 385 115 C 426 115 455 123 473 141 C 491 159 500 188 500 228 L 500 376 C 500 412 491 439 473 457 C 455 475 426 485 385 485 C 344 485 315 475 297 456 C 279 437 270 410 270 374 L 270 228 C 270 188 279 159 297 141 C 315 123 344 115 385 115 Z" unicode="o" />
<glyph horiz-adv-x="770" d="M 385 117 C 423 117 451 125 471 141 C 490 157 500 184 500 220 L 500 375 C 500 411 491 437 475 453 C 458 469 436 477 408 477 C 383 477 359 471 337 460 C 315 449 292 432 270 410 L 270 146 C 288 136 307 128 325 124 C 343 119 363 117 385 117 Z M 412 -7 C 386 -7 361 -5 337 -1 C 313 3 290 9 270 17 L 270 -200 L 100 -200 L 100 600 L 270 600 L 270 493 L 300 493 C 316 529 340 558 373 579 C 405 599 443 610 486 610 C 544 610 589 590 621 551 C 653 511 670 457 670 388 L 670 219 C 670 147 647 92 602 52 C 556 12 493 -7 412 -7 Z" unicode="p" />
<glyph horiz-adv-x="770" d="M 500 -200 L 500 107 L 470 107 C 454 70 430 41 397 21 C 363 0 326 -10 284 -10 C 226 -10 180 9 148 49 C 116 88 100 142 100 212 L 100 381 C 100 451 125 507 177 547 C 229 587 300 607 392 607 C 438 607 487 602 541 592 C 595 582 638 567 670 549 L 670 -200 L 500 -200 Z M 362 124 C 386 124 409 129 432 140 C 454 150 477 167 500 190 L 500 455 C 484 463 467 470 448 476 C 429 481 408 484 385 484 C 347 484 319 475 299 459 C 279 442 270 416 270 380 L 270 229 C 270 193 278 167 294 150 C 310 132 333 124 362 124 Z" unicode="q" />
<glyph horiz-adv-x="670" d="M 100 0 L 100 600 L 270 600 L 270 493 L 300 493 C 314 533 336 563 365 582 C 393 600 425 610 459 610 C 511 610 551 593 577 560 C 603 526 617 481 617 423 L 617 335 L 463 335 L 463 396 C 463 420 457 440 446 455 C 435 469 418 477 395 477 C 373 477 351 469 329 453 C 306 437 286 415 270 389 L 270 0 L 100 0 Z" unicode="r" />
<glyph horiz-adv-x="770" d="M 388 -7 C 334 -7 280 0 227 14 C 173 28 127 50 87 81 L 132 188 C 172 157 215 135 262 123 C 308 111 352 105 392 105 C 428 105 456 109 476 119 C 496 129 506 145 506 168 C 506 191 496 208 476 218 C 456 228 421 235 373 241 C 287 250 221 267 175 292 C 129 316 107 358 107 416 C 107 476 131 524 180 558 C 229 592 293 610 373 610 C 417 610 463 603 511 589 C 558 575 601 555 641 529 L 603 427 C 563 451 525 468 487 480 C 449 492 413 498 379 498 C 346 498 321 493 303 483 C 285 473 276 457 276 436 C 276 412 288 396 312 387 C 336 378 375 370 431 364 C 514 353 575 334 615 307 C 655 279 675 239 675 186 C 675 124 649 77 597 43 C 545 9 476 -7 388 -7 Z" unicode="s" />
<glyph horiz-adv-x="670" d="M 442 -10 C 364 -10 305 8 263 46 C 221 83 200 136 200 205 L 200 475 L 80 475 L 80 600 L 200 600 L 200 800 L 370 800 L 370 600 L 576 600 L 576 475 L 370 475 L 370 224 C 370 186 378 158 396 141 C 413 124 436 116 465 116 C 478 116 493 117 511 121 C 528 124 546 129 565 136 L 585 14 C 570 8 550 2 524 -2 C 498 -7 471 -10 442 -10 Z" unicode="t" />
<glyph horiz-adv-x="770" d="M 282 -10 C 225 -10 180 8 148 46 C 116 83 100 135 100 201 L 100 600 L 270 600 L 270 223 C 270 190 277 165 292 149 C 306 132 327 124 354 124 C 378 124 403 132 428 148 C 453 164 477 186 500 215 L 500 600 L 670 600 L 670 0 L 500 0 L 500 107 L 470 107 C 454 71 430 42 396 21 C 362 0 324 -10 282 -10 Z" unicode="u" />
<glyph horiz-adv-x="670" d="M 446 0 L 223 0 L 24 600 L 194 600 L 337 125 L 482 600 L 646 600 L 446 0 Z" unicode="v" />
<glyph horiz-adv-x="970" d="M 597 0 L 489 370 L 384 0 L 197 0 L 46 600 L 198 600 L 305 134 L 408 500 L 565 500 L 674 144 L 779 600 L 924 600 L 774 0 L 597 0 Z" unicode="w" />
<glyph horiz-adv-x="670" d="M 455 0 L 326 190 L 212 0 L 39 0 L 246 307 L 46 600 L 219 600 L 340 422 L 451 600 L 624 600 L 421 304 L 629 0 L 455 0 Z" unicode="x" />
<glyph horiz-adv-x="670" d="M 174 -210 C 153 -210 131 -209 108 -207 C 85 -205 60 -202 34 -199 L 46 -74 C 72 -78 95 -82 115 -84 C 135 -86 152 -88 168 -88 C 212 -88 244 -78 262 -58 C 280 -38 294 -11 304 21 L 306 28 L 209 28 L 24 600 L 194 600 L 336 127 L 481 600 L 645 600 L 445 -7 C 422 -77 390 -129 350 -161 C 309 -193 250 -210 174 -210 Z" unicode="y" />
<glyph horiz-adv-x="770" d="M 650 0 L 120 0 L 120 125 L 456 475 L 120 475 L 120 600 L 650 600 L 650 475 L 316 125 L 650 125 L 650 0 Z" unicode="z" />
<glyph horiz-adv-x="770" d="M 620 -210 C 452 -212 332 -200 259 -175 C 186 -150 150 -106 150 -44 C 150 -14 155 11 165 31 C 175 51 192 71 214 91 C 236 111 253 128 264 141 C 274 154 280 167 280 179 C 280 210 263 232 230 245 C 197 258 137 266 50 268 L 50 356 C 137 358 197 365 230 378 C 263 390 280 412 280 443 C 280 455 274 466 264 477 C 254 487 238 501 216 517 C 193 533 176 551 166 569 C 155 587 150 610 150 639 C 150 703 186 748 259 774 C 332 800 452 812 620 810 L 620 685 C 506 687 428 682 385 672 C 341 661 320 641 320 613 C 320 599 324 586 334 574 C 343 562 360 547 385 529 C 409 511 426 496 436 482 C 445 468 450 450 450 430 C 450 390 430 362 391 344 C 351 326 284 315 188 313 L 188 308 C 284 301 351 288 391 269 C 430 250 450 222 450 185 C 450 163 445 146 436 132 C 426 118 409 101 385 83 C 360 66 343 51 334 37 C 324 23 320 8 320 -10 C 320 -40 341 -61 385 -73 C 428 -84 506 -89 620 -87 L 620 -210 Z" unicode="{" />
<glyph horiz-adv-x="700" d="M 281 -200 L 281 800 L 420 800 L 420 -200 L 281 -200 Z" unicode="|" />
<glyph horiz-adv-x="770" d="M 620 -44 C 620 -106 583 -150 510 -175 C 437 -200 317 -212 150 -210 L 150 -87 C 263 -89 341 -84 385 -73 C 428 -61 450 -40 450 -10 C 450 8 445 23 436 37 C 426 51 409 66 385 83 C 360 101 343 118 334 132 C 324 146 320 163 320 185 C 320 222 339 250 379 269 C 418 288 486 301 582 308 L 582 313 C 486 315 418 326 379 344 C 339 362 320 390 320 430 C 320 450 324 468 334 482 C 343 496 360 511 385 529 C 409 547 426 562 436 574 C 445 586 450 599 450 613 C 450 641 428 661 385 672 C 341 682 263 687 150 685 L 150 810 C 317 812 437 800 510 774 C 583 748 620 703 620 639 C 620 610 614 587 604 569 C 593 551 576 533 554 517 C 532 501 515 487 505 477 C 495 466 490 455 490 443 C 490 412 506 390 539 378 C 572 365 632 358 720 356 L 720 268 C 632 266 572 258 539 245 C 506 232 490 210 490 179 C 490 167 495 154 506 141 C 516 128 533 111 556 91 C 578 71 594 51 604 31 C 614 11 620 -14 620 -44 Z" unicode="}" />
<glyph horiz-adv-x="970" d="M 647 196 C 598 196 558 207 526 230 C 494 252 466 281 442 316 C 416 353 394 382 377 403 C 360 424 340 435 318 435 C 294 435 276 425 266 406 C 255 387 250 353 250 303 L 250 206 L 100 206 L 100 309 C 100 402 119 474 157 526 C 195 578 251 604 325 604 C 375 604 415 592 447 570 C 479 548 507 519 532 485 C 557 447 578 418 594 397 C 610 376 629 366 651 366 C 677 366 695 376 706 396 C 717 416 723 452 723 506 L 723 594 L 870 594 L 870 501 C 870 396 850 319 811 270 C 771 220 717 196 647 196 Z" unicode="~" />
<glyph horiz-adv-x="600" d="" unicode=" " />
<glyph horiz-adv-x="1040" d="M 908 44 L 538 265 L 538 435 L 908 656 L 908 505 L 649 350 L 908 195 L 908 44 Z M 503 44 L 133 265 L 133 435 L 503 656 L 503 505 L 244 350 L 503 195 L 503 44 Z" unicode="«" />
<glyph horiz-adv-x="770" d="M 100 0 L 100 125 L 300 125 L 300 675 L 100 675 L 100 800 L 470 800 L 470 125 L 670 125 L 670 0 L 100 0 Z" unicode="" />
<glyph horiz-adv-x="1040" d="M 133 44 L 133 195 L 391 350 L 133 505 L 133 656 L 503 435 L 503 265 L 133 44 Z M 538 44 L 538 195 L 796 350 L 538 505 L 538 656 L 908 435 L 908 265 L 538 44 Z" unicode="»" />
<glyph horiz-adv-x="670" d="M 335 696 C 301 696 273 701 252 711 C 230 721 220 740 220 766 L 220 779 C 220 805 230 824 252 835 C 273 846 301 852 335 852 C 369 852 396 846 418 835 C 439 824 450 805 450 779 L 450 766 C 450 740 439 721 418 711 C 396 701 369 696 335 696 Z M 420 125 L 600 125 L 600 0 L 250 0 L 250 475 L 70 475 L 70 600 L 420 600 L 420 125 Z" unicode="" />
<glyph horiz-adv-x="770" d="M 150 -87 C 192 -87 227 -86 255 -83 C 283 -80 306 -74 324 -66 C 341 -58 353 -46 361 -32 C 368 -17 372 1 372 23 L 372 188 C 372 206 375 223 383 237 C 390 251 402 262 419 272 C 435 282 457 290 485 296 C 512 302 546 306 587 309 L 587 314 C 547 314 513 317 485 322 C 457 327 435 334 419 343 C 402 352 390 364 383 378 C 375 392 372 410 372 430 L 372 580 C 372 601 368 618 361 632 C 353 646 341 657 324 665 C 306 673 283 678 255 681 C 227 684 192 685 150 685 L 150 810 C 220 810 279 807 329 801 C 379 795 419 784 451 768 C 482 752 505 730 520 704 C 534 678 542 645 542 606 L 542 445 C 542 429 545 415 551 404 C 557 393 566 384 580 377 C 594 370 612 365 635 362 C 657 358 686 356 720 356 L 720 268 C 686 267 657 265 635 261 C 612 257 594 252 580 245 C 566 238 556 229 550 218 C 544 206 542 193 542 177 L 542 -12 C 542 -50 534 -81 520 -107 C 506 -133 483 -153 451 -169 C 419 -184 379 -195 329 -201 C 279 -207 220 -210 150 -210 L 150 -87 Z" unicode="" />
<glyph horiz-adv-x="670" d="M 475 -7 C 402 -7 344 11 301 49 C 257 87 236 136 236 198 L 236 675 L 70 675 L 70 800 L 406 800 L 406 225 C 406 191 414 165 431 149 C 448 132 471 124 501 124 C 519 124 536 126 552 130 C 568 134 582 139 595 144 L 622 22 C 597 12 572 5 548 0 C 523 -4 499 -7 475 -7 Z" unicode="" />
<glyph horiz-adv-x="670" d="M 420 125 L 600 125 L 600 0 L 250 0 L 250 675 L 70 675 L 70 800 L 420 800 L 420 125 Z" unicode="" />
<glyph horiz-adv-x="570" d="M 420 0 L 250 0 L 250 475 L 70 475 L 70 600 L 420 600 L 420 0 Z M 335 696 C 301 696 273 701 252 711 C 230 721 220 740 220 766 L 220 779 C 220 805 230 824 252 835 C 273 846 301 852 335 852 C 369 852 396 846 418 835 C 439 824 450 805 450 779 L 450 766 C 450 740 439 721 418 711 C 396 701 369 696 335 696 Z" unicode="" />
<glyph horiz-adv-x="700" d="M 535 44 L 165 265 L 165 435 L 535 656 L 535 505 L 276 350 L 535 195 L 535 44 Z" unicode="‹" />
<glyph horiz-adv-x="700" d="M 165 44 L 165 195 L 424 350 L 165 505 L 165 656 L 535 435 L 535 265 L 165 44 Z" unicode="›" />
<glyph horiz-adv-x="570" d="M 420 0 L 250 0 L 250 675 L 70 675 L 70 800 L 420 800 L 420 0 Z" unicode="" />
<glyph horiz-adv-x="870" d="M 241 0 C 221 0 202 11 185 33 C 167 55 152 84 139 122 C 126 159 116 202 109 251 C 101 300 98 352 98 407 C 98 459 101 508 109 556 C 116 603 126 645 139 681 C 152 717 167 745 185 767 C 203 789 222 800 242 800 L 629 800 C 649 800 667 789 685 767 C 703 745 718 717 731 681 C 743 645 753 603 761 556 C 768 508 772 459 772 407 C 772 352 768 300 760 251 C 752 202 742 159 729 122 C 716 84 701 55 684 33 C 666 11 648 0 628 0 L 241 0 Z M 268 407 C 268 370 269 335 272 301 C 274 267 278 238 283 213 C 288 187 294 167 301 152 C 308 136 316 129 324 129 L 544 129 C 552 129 559 136 567 152 C 574 167 580 187 585 213 C 590 238 594 267 597 301 C 600 335 602 370 602 407 C 602 441 600 473 597 505 C 594 537 590 565 585 590 C 580 614 574 634 568 649 C 561 663 554 671 546 671 L 326 671 C 318 671 310 663 303 649 C 295 634 289 614 284 590 C 279 565 275 537 272 505 C 269 473 268 441 268 407 Z" unicode="" />
<glyph horiz-adv-x="670" d="M 328 696 C 294 696 266 701 245 711 C 223 721 213 740 213 766 L 213 779 C 213 805 223 824 245 835 C 266 846 294 852 328 852 C 362 852 389 846 411 835 C 432 824 443 805 443 779 L 443 766 C 443 740 432 721 411 711 C 389 701 362 696 328 696 Z M 476 -7 C 402 -7 344 11 301 49 C 257 87 236 136 236 198 L 236 475 L 70 475 L 70 600 L 406 600 L 406 225 C 406 191 414 165 431 149 C 448 132 471 124 501 124 C 519 124 536 126 552 130 C 568 134 582 139 595 144 L 622 22 C 597 12 572 5 548 0 C 523 -4 499 -7 476 -7 Z" unicode="" />
<glyph horiz-adv-x="870" d="M 435 -10 C 324 -10 240 19 183 79 C 125 139 97 223 97 333 L 97 463 C 97 573 125 659 183 719 C 241 779 325 810 436 810 C 546 810 630 779 687 719 C 744 659 773 573 773 463 L 773 333 C 773 223 744 139 687 79 C 629 19 545 -10 435 -10 Z M 267 350 C 267 314 269 283 274 257 C 278 231 285 209 294 191 L 489 680 C 481 681 472 682 463 683 C 454 684 445 685 435 685 C 373 685 330 667 305 631 C 279 595 267 533 267 446 L 267 350 Z M 435 115 C 497 115 540 132 565 168 C 590 203 603 264 603 350 L 603 446 C 603 484 600 516 595 544 C 590 571 582 594 572 612 L 375 122 C 383 119 393 117 403 116 C 413 115 424 115 435 115 Z" unicode="" />
<glyph horiz-adv-x="900" d="M 672 166 L 482 342 L 524 100 L 374 100 L 417 341 L 228 166 L 153 296 L 395 401 L 153 506 L 228 636 L 417 460 L 374 700 L 524 700 L 482 459 L 672 636 L 747 506 L 504 401 L 747 296 L 672 166 Z" unicode="" />
</font>
</defs>
</svg>
